<svg xmlns="http://www.w3.org/2000/svg" viewBox="0 0 500 500"><g id="freepik--background-complete--inject-971"><rect y="382.4" width="500" height="0.25" style="fill:#ebebeb"/><rect x="416.78" y="398.49" width="33.12" height="0.25" style="fill:#ebebeb"/><rect x="322.53" y="401.21" width="8.69" height="0.25" style="fill:#ebebeb"/><rect x="396.59" y="389.21" width="19.19" height="0.25" style="fill:#ebebeb"/><rect x="52.46" y="390.89" width="43.19" height="0.25" style="fill:#ebebeb"/><rect x="104.56" y="390.89" width="6.33" height="0.25" style="fill:#ebebeb"/><rect x="131.47" y="395.11" width="93.68" height="0.25" style="fill:#ebebeb"/><path d="M237,337.8H43.91a5.71,5.71,0,0,1-5.7-5.71V60.66A5.71,5.71,0,0,1,43.91,55H237a5.71,5.71,0,0,1,5.71,5.71V332.09A5.71,5.71,0,0,1,237,337.8ZM43.91,55.2a5.46,5.46,0,0,0-5.45,5.46V332.09a5.46,5.46,0,0,0,5.45,5.46H237a5.47,5.47,0,0,0,5.46-5.46V60.66A5.47,5.47,0,0,0,237,55.2Z" style="fill:#ebebeb"/><path d="M453.31,337.8H260.21a5.72,5.72,0,0,1-5.71-5.71V60.66A5.72,5.72,0,0,1,260.21,55h193.1A5.71,5.71,0,0,1,459,60.66V332.09A5.71,5.71,0,0,1,453.31,337.8ZM260.21,55.2a5.47,5.47,0,0,0-5.46,5.46V332.09a5.47,5.47,0,0,0,5.46,5.46h193.1a5.47,5.47,0,0,0,5.46-5.46V60.66a5.47,5.47,0,0,0-5.46-5.46Z" style="fill:#ebebeb"/><polygon points="269.48 382.4 440.01 382.4 452.11 83.18 281.58 83.18 269.48 382.4" style="fill:#e6e6e6"/><polygon points="265.31 382.4 435.84 382.4 447.94 83.18 277.41 83.18 265.31 382.4" style="fill:#f0f0f0"/><polygon points="427.67 373.89 439.09 91.69 285.58 91.69 274.17 373.89 427.67 373.89" style="fill:#fafafa"/><path d="M103.39,141.26l8.92,22c-.26,63.61,2.62,67.28,2.64,78.22H92.43C91.62,188.23,99.51,200.2,103.39,141.26Z" style="fill:#ebebeb"/><path d="M116,206.22C97.83,156.3,56.09,171.76,58,190S126.39,234.93,116,206.22Z" style="fill:#ebebeb"/><path d="M109.11,235c-9.9-32.17-36.2-26.92-36.2-12.14S114.8,253.51,109.11,235Z" style="fill:#ebebeb"/><path d="M108.4,176.94c-15.53-43-54.21-37.09-51.09-18.94S117.33,201.67,108.4,176.94Z" style="fill:#ebebeb"/><path d="M108.51,157.65c1.44-29.3-27.58-41.36-25.57-23.85S107.68,174.5,108.51,157.65Z" style="fill:#ebebeb"/><path d="M106.34,187.65c6.13-36.1,43.31-49.84,39.16-29.4S102.82,208.41,106.34,187.65Z" style="fill:#ebebeb"/><path d="M103.21,167.24c-7.22-37.86,26.18-54.68,27.14-36.43S107.36,189,103.21,167.24Z" style="fill:#ebebeb"/><path d="M100.31,210c14.76-36.48,46.36-27.43,43.17-10.83S91.82,231,100.31,210Z" style="fill:#ebebeb"/><path d="M107.6,235.48c-.33-23.54,21-29.62,21.28-16S107.78,249,107.6,235.48Z" style="fill:#ebebeb"/><path d="M101.07,264h0A24.58,24.58,0,0,1,77,244.74a51.08,51.08,0,0,0-2.51-8.6l-.19-.45h53.52l-.19.45a51.08,51.08,0,0,0-2.51,8.6A24.57,24.57,0,0,1,101.07,264Z" style="fill:#e0e0e0"/><rect x="49.41" y="263.97" width="23.75" height="118.43" transform="translate(122.56 646.36) rotate(180)" style="fill:#e6e6e6"/><polygon points="56.53 382.4 49.41 382.4 49.41 368.13 63.99 368.13 56.53 382.4" style="fill:#f0f0f0"/><rect x="212.19" y="263.97" width="23.75" height="118.43" transform="translate(448.14 646.36) rotate(180)" style="fill:#e6e6e6"/><rect x="49.41" y="263.97" width="169" height="113.68" transform="translate(267.81 641.61) rotate(180)" style="fill:#f0f0f0"/><polygon points="211.29 382.4 218.41 382.4 218.41 368.13 203.82 368.13 211.29 382.4" style="fill:#f0f0f0"/><rect x="54.93" y="271.97" width="157.95" height="45.49" transform="translate(267.81 589.42) rotate(180)" style="fill:#e6e6e6"/><path d="M97.59,286.1h67.84c6.95,0,13.59-5.61,18.37-15.52H79.23C84,280.49,90.65,286.1,97.59,286.1Z" style="fill:#f0f0f0"/><rect x="54.93" y="324.81" width="157.95" height="45.49" transform="translate(267.81 695.11) rotate(180)" style="fill:#e6e6e6"/><path d="M97.59,338.94h67.84c6.95,0,13.59-5.61,18.37-15.52H79.23C84,333.33,90.65,338.94,97.59,338.94Z" style="fill:#f0f0f0"/></g><g id="freepik--Shadow--inject-971"><ellipse id="freepik--path--inject-971" cx="250" cy="416.24" rx="193.89" ry="11.32" style="fill:#f5f5f5"/></g><g id="freepik--task-panel--inject-971"><path d="M404.87,315.6H146.11a9.4,9.4,0,0,1-9.49-10.36l15.54-185a11.51,11.51,0,0,1,11.23-10.36H422.15a9.42,9.42,0,0,1,9.5,10.36L416.11,305.24A11.53,11.53,0,0,1,404.87,315.6Z" style="fill:#407BFF"/><path d="M404.87,315.6H146.11a9.4,9.4,0,0,1-9.49-10.36l15.54-185a11.51,11.51,0,0,1,11.23-10.36H422.15a9.42,9.42,0,0,1,9.5,10.36L416.11,305.24A11.53,11.53,0,0,1,404.87,315.6Z" style="fill:#fff;opacity:0.7000000000000001"/><path d="M146.45,311.6a5.76,5.76,0,0,1-5.83-6.36l15.54-185a7.06,7.06,0,0,1,6.9-6.36H421.81a5.77,5.77,0,0,1,5.84,6.36L412.11,305.24a7.06,7.06,0,0,1-6.9,6.36Z" style="fill:#fff"/><ellipse cx="407.06" cy="129.3" rx="5.21" ry="4.79" transform="translate(23.76 317.7) rotate(-43.8)" style="fill:#407BFF;opacity:0.1"/><ellipse cx="387.06" cy="129.3" rx="5.21" ry="4.79" transform="translate(18.2 303.86) rotate(-43.8)" style="fill:#407BFF;opacity:0.1"/><ellipse cx="367.06" cy="129.3" rx="5.21" ry="4.79" transform="translate(12.63 290.02) rotate(-43.8)" style="fill:#407BFF;opacity:0.1"/><path d="M238.47,150.16H175.33c-3.78,0-7.11,2.85-7.4,6.34l-13,155.1h76.88l13-155.1C245.09,153,242.24,150.16,238.47,150.16Z" style="fill:#407BFF;opacity:0.1"/><path d="M236.51,154H176.64a5.59,5.59,0,0,0-5.43,5l-3,35.9a4.54,4.54,0,0,0,4.59,5h59.86a5.56,5.56,0,0,0,5.43-5l3-35.9A4.56,4.56,0,0,0,236.51,154Z" style="fill:#fff"/><path d="M232.2,205.33H172.33a5.58,5.58,0,0,0-5.43,5l-3,35.9a4.54,4.54,0,0,0,4.59,5h59.86a5.56,5.56,0,0,0,5.43-5l3-35.9A4.56,4.56,0,0,0,232.2,205.33Z" style="fill:#fff"/><path d="M227.89,256.67H168a5.57,5.57,0,0,0-5.43,5l-3,35.9a4.54,4.54,0,0,0,4.59,5H224a5.57,5.57,0,0,0,5.43-5l3-35.9A4.54,4.54,0,0,0,227.89,256.67Z" style="fill:#fff"/><path d="M187.82,174.16H177.23a2.08,2.08,0,0,1-2.1-2.29l.89-10.59a2.56,2.56,0,0,1,2.49-2.29h10.58a2.08,2.08,0,0,1,2.1,2.29l-.89,10.59A2.55,2.55,0,0,1,187.82,174.16Z" style="fill:#407BFF;opacity:0.5"/><path d="M233.05,182.41H175.33a1,1,0,0,1-1-1.08h0a1.21,1.21,0,0,1,1.17-1.09h57.72a1,1,0,0,1,1,1.09h0A1.21,1.21,0,0,1,233.05,182.41Z" style="fill:#407BFF;opacity:0.5"/><path d="M225.41,165.44H198.86a1.57,1.57,0,0,1-1.58-1.73h0a1.92,1.92,0,0,1,1.87-1.72H225.7a1.57,1.57,0,0,1,1.58,1.72h0A1.92,1.92,0,0,1,225.41,165.44Z" style="fill:#263238;opacity:0.2"/><path d="M214.43,171.16H198.38a1.57,1.57,0,0,1-1.58-1.72h0a1.92,1.92,0,0,1,1.86-1.73h16.06a1.57,1.57,0,0,1,1.58,1.73h0A1.92,1.92,0,0,1,214.43,171.16Z" style="fill:#263238;opacity:0.2"/><path d="M183.51,225.5H172.92a2.08,2.08,0,0,1-2.1-2.29l.89-10.59a2.55,2.55,0,0,1,2.49-2.29h10.58a2.08,2.08,0,0,1,2.1,2.29L186,223.21A2.55,2.55,0,0,1,183.51,225.5Z" style="fill:#407BFF;opacity:0.5"/><path d="M228.74,233.75H171a1,1,0,0,1-1-1.09h0a1.21,1.21,0,0,1,1.17-1.08h57.72a1,1,0,0,1,1,1.08h0A1.21,1.21,0,0,1,228.74,233.75Z" style="fill:#407BFF;opacity:0.5"/><path d="M221.1,216.78H194.54a1.57,1.57,0,0,1-1.57-1.73h0a1.92,1.92,0,0,1,1.86-1.72h26.56a1.57,1.57,0,0,1,1.58,1.72h0A1.92,1.92,0,0,1,221.1,216.78Z" style="fill:#263238;opacity:0.2"/><path d="M210.12,222.5H194.06a1.56,1.56,0,0,1-1.57-1.72h0a1.92,1.92,0,0,1,1.86-1.73h16.06a1.57,1.57,0,0,1,1.58,1.73h0A1.92,1.92,0,0,1,210.12,222.5Z" style="fill:#263238;opacity:0.2"/><path d="M179.19,276.84H168.61a2.09,2.09,0,0,1-2.1-2.3L167.4,264a2.55,2.55,0,0,1,2.48-2.29h10.59a2.08,2.08,0,0,1,2.1,2.29l-.89,10.58A2.57,2.57,0,0,1,179.19,276.84Z" style="fill:#407BFF;opacity:0.5"/><path d="M224.42,285.09H166.71a1,1,0,0,1-1-1.09h0a1.21,1.21,0,0,1,1.17-1.08h57.72a1,1,0,0,1,1,1.08h0A1.21,1.21,0,0,1,224.42,285.09Z" style="fill:#407BFF;opacity:0.25"/><path d="M213.25,285.09H166.71a1,1,0,0,1-1-1.09h0a1.21,1.21,0,0,1,1.17-1.08h46.54a1,1,0,0,1,1,1.08h0A1.21,1.21,0,0,1,213.25,285.09Z" style="fill:#407BFF;opacity:0.25"/><path d="M216.79,268.11H190.23a1.56,1.56,0,0,1-1.57-1.72h0a1.91,1.91,0,0,1,1.86-1.72h26.56a1.56,1.56,0,0,1,1.58,1.72h0A1.91,1.91,0,0,1,216.79,268.11Z" style="fill:#263238;opacity:0.2"/><path d="M205.81,273.84H189.75a1.57,1.57,0,0,1-1.57-1.73h0a1.9,1.9,0,0,1,1.86-1.72H206.1a1.58,1.58,0,0,1,1.58,1.72h0A1.92,1.92,0,0,1,205.81,273.84Z" style="fill:#263238;opacity:0.2"/><path d="M321,150.16H257.81c-3.77,0-7.1,2.85-7.39,6.34l-13,155.1h76.87l13-155.1C327.58,153,324.73,150.16,321,150.16Z" style="fill:#407BFF;opacity:0.1"/><path d="M319,154H259.13a5.58,5.58,0,0,0-5.43,5l-3,35.9a4.54,4.54,0,0,0,4.58,5h59.87a5.57,5.57,0,0,0,5.43-5l3-35.9A4.55,4.55,0,0,0,319,154Z" style="fill:#fff"/><path d="M314.68,205.33H254.82a5.57,5.57,0,0,0-5.43,5l-3,35.9a4.55,4.55,0,0,0,4.59,5h59.87a5.58,5.58,0,0,0,5.43-5l3-35.9A4.55,4.55,0,0,0,314.68,205.33Z" style="fill:#fff"/><path d="M310.37,256.67H250.51a5.56,5.56,0,0,0-5.43,5l-3,35.9a4.55,4.55,0,0,0,4.59,5h59.87a5.58,5.58,0,0,0,5.43-5l3-35.9A4.54,4.54,0,0,0,310.37,256.67Z" style="fill:#fff"/><path d="M270.3,174.16H259.72a2.08,2.08,0,0,1-2.1-2.29l.89-10.59A2.54,2.54,0,0,1,261,159h10.59a2.08,2.08,0,0,1,2.1,2.29l-.89,10.59A2.56,2.56,0,0,1,270.3,174.16Z" style="fill:#407BFF;opacity:0.5"/><path d="M315.53,182.41H257.82a1,1,0,0,1-1-1.08h0a1.2,1.2,0,0,1,1.17-1.09h57.72a1,1,0,0,1,1,1.09h0A1.21,1.21,0,0,1,315.53,182.41Z" style="fill:#407BFF;opacity:0.25"/><path d="M282.58,182.41H257.82a1,1,0,0,1-1-1.08h0a1.2,1.2,0,0,1,1.17-1.09h24.77a1,1,0,0,1,1,1.09h0A1.21,1.21,0,0,1,282.58,182.41Z" style="fill:#407BFF;opacity:0.25"/><path d="M307.9,165.44H281.34a1.57,1.57,0,0,1-1.58-1.73h0a1.92,1.92,0,0,1,1.87-1.72h26.56a1.56,1.56,0,0,1,1.57,1.72h0A1.92,1.92,0,0,1,307.9,165.44Z" style="fill:#263238;opacity:0.2"/><path d="M296.92,171.16H280.86a1.57,1.57,0,0,1-1.58-1.72h0a1.92,1.92,0,0,1,1.87-1.73h16.06a1.57,1.57,0,0,1,1.57,1.73h0A1.92,1.92,0,0,1,296.92,171.16Z" style="fill:#263238;opacity:0.2"/><path d="M266,225.5H255.41a2.08,2.08,0,0,1-2.1-2.29l.89-10.59a2.54,2.54,0,0,1,2.48-2.29h10.58a2.07,2.07,0,0,1,2.1,2.29l-.88,10.59A2.56,2.56,0,0,1,266,225.5Z" style="fill:#407BFF;opacity:0.5"/><path d="M311.22,233.75H253.51a1,1,0,0,1-1-1.09h0a1.21,1.21,0,0,1,1.18-1.08H311.4a1,1,0,0,1,1,1.08h0A1.21,1.21,0,0,1,311.22,233.75Z" style="fill:#407BFF;opacity:0.25"/><path d="M256.59,233.75h-3.08a1,1,0,0,1-1-1.09h0a1.21,1.21,0,0,1,1.18-1.08h3.08a1,1,0,0,1,1,1.08h0A1.21,1.21,0,0,1,256.59,233.75Z" style="fill:#407BFF;opacity:0.25"/><path d="M303.59,216.78H277a1.57,1.57,0,0,1-1.58-1.73h0a1.92,1.92,0,0,1,1.87-1.72h26.56a1.56,1.56,0,0,1,1.57,1.72h0A1.92,1.92,0,0,1,303.59,216.78Z" style="fill:#263238;opacity:0.2"/><path d="M292.61,222.5H276.55a1.57,1.57,0,0,1-1.58-1.72h0a1.92,1.92,0,0,1,1.87-1.73h16.05a1.57,1.57,0,0,1,1.58,1.73h0A1.92,1.92,0,0,1,292.61,222.5Z" style="fill:#263238;opacity:0.2"/><path d="M261.68,276.84H251.1a2.09,2.09,0,0,1-2.1-2.3l.89-10.58a2.54,2.54,0,0,1,2.48-2.29H263a2.08,2.08,0,0,1,2.1,2.29l-.89,10.58A2.55,2.55,0,0,1,261.68,276.84Z" style="fill:#407BFF;opacity:0.5"/><path d="M306.91,285.09H249.2a1,1,0,0,1-1-1.09h0a1.21,1.21,0,0,1,1.18-1.08h57.71a1,1,0,0,1,1,1.08h0A1.21,1.21,0,0,1,306.91,285.09Z" style="fill:#407BFF;opacity:0.5"/><path d="M299.28,268.11H272.72a1.56,1.56,0,0,1-1.58-1.72h0a1.91,1.91,0,0,1,1.87-1.72h26.55a1.56,1.56,0,0,1,1.58,1.72h0A1.91,1.91,0,0,1,299.28,268.11Z" style="fill:#263238;opacity:0.2"/><path d="M288.29,273.84H272.24a1.57,1.57,0,0,1-1.58-1.73h0a1.92,1.92,0,0,1,1.87-1.72h16.05a1.57,1.57,0,0,1,1.58,1.72h0A1.92,1.92,0,0,1,288.29,273.84Z" style="fill:#263238;opacity:0.2"/><path d="M403.44,150.16H340.3a7.36,7.36,0,0,0-7.4,6.34l-13,155.1h76.87l13-155.1C410.07,153,407.22,150.16,403.44,150.16Z" style="fill:#407BFF;opacity:0.1"/><path d="M401.48,154H341.62a5.57,5.57,0,0,0-5.43,5l-3,35.9a4.54,4.54,0,0,0,4.59,5h59.86a5.56,5.56,0,0,0,5.43-5l3-35.9A4.55,4.55,0,0,0,401.48,154Z" style="fill:#fff"/><path d="M397.17,205.33H337.31a5.57,5.57,0,0,0-5.43,5l-3,35.9a4.54,4.54,0,0,0,4.59,5h59.86a5.56,5.56,0,0,0,5.43-5l3-35.9A4.56,4.56,0,0,0,397.17,205.33Z" style="fill:#fff"/><path d="M392.86,256.67H333a5.58,5.58,0,0,0-5.43,5l-3,35.9a4.54,4.54,0,0,0,4.59,5H389a5.56,5.56,0,0,0,5.43-5l3-35.9A4.55,4.55,0,0,0,392.86,256.67Z" style="fill:#fff"/><path d="M352.79,174.16H342.21a2.07,2.07,0,0,1-2.1-2.29l.88-10.59a2.56,2.56,0,0,1,2.49-2.29h10.58a2.08,2.08,0,0,1,2.1,2.29l-.89,10.59A2.54,2.54,0,0,1,352.79,174.16Z" style="fill:#407BFF;opacity:0.5"/><path d="M398,182.41H340.3a1,1,0,0,1-1-1.08h0a1.21,1.21,0,0,1,1.18-1.09H398.2a1,1,0,0,1,1,1.09h0A1.2,1.2,0,0,1,398,182.41Z" style="fill:#407BFF;opacity:0.5"/><path d="M390.38,165.44H363.83a1.57,1.57,0,0,1-1.58-1.73h0a1.92,1.92,0,0,1,1.87-1.72h26.55a1.57,1.57,0,0,1,1.58,1.72h0A1.92,1.92,0,0,1,390.38,165.44Z" style="fill:#263238;opacity:0.2"/><path d="M379.4,171.16h-16a1.57,1.57,0,0,1-1.58-1.72h0a1.92,1.92,0,0,1,1.87-1.73h16.05a1.57,1.57,0,0,1,1.58,1.73h0A1.92,1.92,0,0,1,379.4,171.16Z" style="fill:#263238;opacity:0.2"/><path d="M348.48,225.5H337.89a2.08,2.08,0,0,1-2.1-2.29l.89-10.59a2.56,2.56,0,0,1,2.49-2.29h10.58a2.08,2.08,0,0,1,2.1,2.29L351,223.21A2.54,2.54,0,0,1,348.48,225.5Z" style="fill:#407BFF;opacity:0.5"/><path d="M393.71,233.75H336a1,1,0,0,1-1-1.09h0a1.21,1.21,0,0,1,1.17-1.08h57.72a1,1,0,0,1,1,1.08h0A1.21,1.21,0,0,1,393.71,233.75Z" style="fill:#407BFF;opacity:0.5"/><path d="M386.07,216.78H359.52a1.57,1.57,0,0,1-1.58-1.73h0a1.92,1.92,0,0,1,1.87-1.72h26.55a1.57,1.57,0,0,1,1.58,1.72h0A1.92,1.92,0,0,1,386.07,216.78Z" style="fill:#263238;opacity:0.2"/><path d="M375.09,222.5H359a1.57,1.57,0,0,1-1.58-1.72h0a1.92,1.92,0,0,1,1.87-1.73h16.05a1.57,1.57,0,0,1,1.58,1.73h0A1.92,1.92,0,0,1,375.09,222.5Z" style="fill:#263238;opacity:0.2"/><path d="M344.17,276.84H333.58a2.09,2.09,0,0,1-2.1-2.3l.89-10.58a2.56,2.56,0,0,1,2.49-2.29h10.58a2.08,2.08,0,0,1,2.1,2.29l-.89,10.58A2.56,2.56,0,0,1,344.17,276.84Z" style="fill:#407BFF;opacity:0.5"/><path d="M389.4,285.09H331.68a1,1,0,0,1-1-1.09h0a1.21,1.21,0,0,1,1.17-1.08h57.72a1,1,0,0,1,1,1.08h0A1.21,1.21,0,0,1,389.4,285.09Z" style="fill:#407BFF;opacity:0.25"/><path d="M381.76,268.11H355.21a1.56,1.56,0,0,1-1.58-1.72h0a1.91,1.91,0,0,1,1.86-1.72h26.56a1.56,1.56,0,0,1,1.58,1.72h0A1.91,1.91,0,0,1,381.76,268.11Z" style="fill:#263238;opacity:0.2"/><path d="M370.78,273.84h-16a1.57,1.57,0,0,1-1.58-1.73h0a1.92,1.92,0,0,1,1.86-1.72h16.06a1.57,1.57,0,0,1,1.58,1.72h0A1.92,1.92,0,0,1,370.78,273.84Z" style="fill:#263238;opacity:0.2"/></g><g id="freepik--Character--inject-971"><path d="M115.94,144.62c.1,6,.42,16.54-2.74,20.24a43.75,43.75,0,0,1,18.89,12.28c4.33-7.08-1.31-10.88-1.31-10.88-6.24-2-5-5.92-3.71-10.24Z" style="fill:#b55b52"/><path d="M110.5,175.63l-3.68,7.08-3.63,7.09c-1.18,2.37-2.34,4.73-3.41,7.06-.53,1.17-1,2.33-1.46,3.45a22.9,22.9,0,0,0-1,2.92v-1.59a22.58,22.58,0,0,0,.79,4.26,41.62,41.62,0,0,0,1.58,4.54c.62,1.53,1.33,3.06,2.09,4.59s1.61,3.1,2.37,4.53l.11.19a2.94,2.94,0,0,1-4.48,3.65,38.78,38.78,0,0,1-4.2-4.09A45.75,45.75,0,0,1,92,214.7a37.2,37.2,0,0,1-3-5.28,27.8,27.8,0,0,1-2.08-6.17,3.8,3.8,0,0,1,0-1.3l0-.29A30,30,0,0,1,88,196.74c.44-1.45.94-2.81,1.45-4.16,1-2.68,2.11-5.25,3.26-7.78s2.35-5,3.59-7.49,2.52-4.88,3.92-7.32a5.87,5.87,0,0,1,10.31,5.6Z" style="fill:#b55b52"/><path d="M107.72,221.66l-1.36-.86-3.86-2.48-2.75,4.1c1,4,5,5.91,5,5.91l1.53.35a2.15,2.15,0,0,0,2.58-1.42l.44-1.18A3.91,3.91,0,0,0,107.72,221.66Z" style="fill:#b55b52"/><path d="M178.71,205.73l-3,1.36a2.44,2.44,0,0,0-1.25,3.2l1.07,2.51A2.11,2.11,0,0,0,177,214c2.56.53,6.25-.94,8.9-2.27a3.4,3.4,0,0,0,1.35-4.92l-1.16-1.78a3.41,3.41,0,0,0-4.65-1Z" style="fill:#b55b52"/><path d="M105.35,165.34c-5.26,2.33-10.07,7.88-14,18.14,1.27,4.23,14.27,11.17,14.27,11.17S121.84,160.24,105.35,165.34Z" style="fill:#263238"/><path d="M148.77,178.48c-.05,3.82,6.26,12.65-1,17.77-.63,7.71-1.49,15.3-3.14,27.95H105.79c3.69-14,.5-23.41-5.42-48a9.48,9.48,0,0,1,8.25-11.77c1.54-.16,3.18-.29,4.86-.37a124.85,124.85,0,0,1,17.63,0c1.91.18,3.88.42,5.77.68A13.86,13.86,0,0,1,148.77,178.48Z" style="fill:#263238"/><path d="M131.26,162.85c-8.95-2.28-28.12-2-31.61.69s3.85,7.29,4.27,7.66c-2.53,1.41,0,8.71,10.51,10.72s12.83-11,15.87-13.73C131.85,166.8,132.7,164.65,131.26,162.85Z" style="fill:#407BFF"/><path d="M105.35,170.89c5.26.72,16.5-1.78,20.33-2.95C120.78,170.56,108.25,175.33,105.35,170.89Z" style="opacity:0.2"/><path d="M147.57,173.85c.54,2.67,1.07,5.47,1.67,8.19s1.18,5.47,1.81,8.16,1.33,5.36,2.09,7.92c.38,1.28.81,2.53,1.23,3.7a23.17,23.17,0,0,0,1.36,3.09l-2-1.81h0s.07,0,.1.06.28.11.42.18l1.27.38c.93.26,2,.48,3,.69,2.1.4,4.29.79,6.49,1.13l6.67,1.05c2.22.38,4.48.71,6.7,1.11h0a2.94,2.94,0,0,1-.16,5.81c-2.33.29-4.62.44-6.94.61s-4.63.21-7,.23-4.68,0-7.09-.19c-1.21-.09-2.43-.19-3.73-.38-.66-.09-1.33-.21-2.07-.38-.39-.11-.73-.18-1.2-.34a7.21,7.21,0,0,1-.69-.24l-.82-.37a4.38,4.38,0,0,1-1.76-1.5l-.2-.31a33.67,33.67,0,0,1-2.51-4.58c-.68-1.47-1.23-2.92-1.77-4.35-1.06-2.88-1.94-5.73-2.73-8.59s-1.49-5.71-2.13-8.57-1.2-5.7-1.66-8.68a5.87,5.87,0,0,1,11.55-2.09Z" style="fill:#b55b52"/><path d="M140.19,165.62c4.79,2.38,9.54,7,11.51,17.58-1.24,4.19-18.36,12.26-18.36,12.26S123.81,159.5,140.19,165.62Z" style="fill:#263238"/><path d="M139.51,140c-.09.76.24,1.44.74,1.51s1-.47,1.08-1.23-.24-1.44-.74-1.52S139.61,139.24,139.51,140Z" style="fill:#263238"/><path d="M140.37,138.77l1.9-.24S141.15,139.81,140.37,138.77Z" style="fill:#263238"/><path d="M139.73,140.83a21.22,21.22,0,0,0,2.12,5.28,3.31,3.31,0,0,1-2.79.08Z" style="fill:#a02724"/><path d="M141.29,134.76a.43.43,0,0,0,.3-.13.46.46,0,0,0,0-.64,4.61,4.61,0,0,0-4-1.32.44.44,0,0,0-.33.54.46.46,0,0,0,.55.34,3.7,3.7,0,0,1,3.13,1.08A.44.44,0,0,0,141.29,134.76Z" style="fill:#263238"/><path d="M114.49,133.57c-.61,9.43-1.06,13.4,3,18.93,6.11,8.3,17.68,7.3,21-1.69,3-8.09,3.51-22.15-5.06-27.28A12.42,12.42,0,0,0,114.49,133.57Z" style="fill:#b55b52"/><path d="M133,142.08c6.42-2.5,5.57-9.66,2.24-12.5,6.51,2.67,11,.59,6.08-6.5s-31.84-8.58-28.12,2.42c-12-3.86-8.48,12.11-7.85,22.58-8.68,8.75,12.92,16.34,26.58,11.92S133,142.08,133,142.08Z" style="fill:#263238"/><path d="M130.54,140.76c.75,2.4,1,3.43,2.46,4.58,2.18,1.73,4.73.8,4.66-1.65-.06-2.21-1.27-5.76-3.72-6.55S129.79,138.36,130.54,140.76Z" style="fill:#b55b52"/><path d="M144.62,224.2s1.37,50.13,3.2,83.12c1.94,30.26,4.43,101.05,4.43,101.05l-7.64.4s-16.93-59.56-16.21-95.55c-19.87-50.34-12.73-87.51-12.73-87.51Z" style="fill:#b55b52"/><path d="M151.68,405.21a1,1,0,0,1,1.17,0,21.35,21.35,0,0,0,12.7,4.23c5.08.22,3.82,3-3.45,3.92-8.54,1.07-10.38,2.82-13.14,3.52s-5-1.41-4.9-7.21a1,1,0,0,1,.65-.91A34,34,0,0,0,151.68,405.21Z" style="fill:#263238"/><path d="M134.47,224.2s-14,59.33-22.11,86.94c-8.53,29-15.28,95.18-15.24,97.38H90.51s-8.55-53.64,2-97.4c1-71,13.24-86.92,13.24-86.92Z" style="fill:#b55b52"/><path d="M97.3,406.12a.84.84,0,0,1,1,.27c1.71,2.21,3,4.67,8,6.83,4.17,1.79,1.87,4.23-4.68,3.33-7.69-1.05-7.79.2-10.39.2s-3.81-2.58-1.92-8.19a1.09,1.09,0,0,1,.84-.73A30.14,30.14,0,0,0,97.3,406.12Z" style="fill:#263238"/><path d="M90.11,297.56c-.78,7.33-2.22,23.22-2.22,23.22s23,4.72,63.32,2.35c-.21-4.84-.25-11.84-.25-11.84Z" style="fill:#263238"/><path d="M144.62,224a525.75,525.75,0,0,1,7.63,97.85,362.91,362.91,0,0,1-65-6.45s1.18-68.66,18.54-91.39C115.82,221.64,144.39,223.23,144.62,224Z" style="fill:#407BFF"/><path d="M104.16,251.33c11.67,8.84,20.52,10.51,20.52,10.51S115.13,265.22,104.16,251.33Z" style="opacity:0.2"/></g><g id="freepik--Plant--inject-971"><path d="M367.86,398.44h-.06a.24.24,0,0,1-.19-.29c5.19-24.33,2.76-47.42-7.21-68.65A103.26,103.26,0,0,0,334.45,295a.24.24,0,0,1,0-.35.26.26,0,0,1,.36,0,103.77,103.77,0,0,1,26.08,34.63c10,21.32,12.46,44.53,7.25,69A.25.25,0,0,1,367.86,398.44Z" style="fill:#263238"/><path d="M377.21,352.87a23.61,23.61,0,0,1-7.39,9.07,21.67,21.67,0,0,1,9-20.67A23.59,23.59,0,0,1,377.21,352.87Z" style="fill:#263238"/><path d="M353.92,322.63a23.62,23.62,0,0,1,7.64,8.86A21.63,21.63,0,0,1,342.79,319,23.53,23.53,0,0,1,353.92,322.63Z" style="fill:#263238"/><path d="M350,297.85a23.61,23.61,0,0,1-1.34,11.62,21.69,21.69,0,0,1-3.57-22.25A23.61,23.61,0,0,1,350,297.85Z" style="fill:#407BFF"/><path d="M336.54,294.63a1.95,1.95,0,1,1-2.15-1.72A2,2,0,0,1,336.54,294.63Z" style="fill:#407BFF"/><path d="M373.73,393.47a.25.25,0,0,1-.23-.15c-8.41-20-10.1-40.22-5-60.06a90.13,90.13,0,0,1,16.65-33.79.25.25,0,0,1,.36,0,.25.25,0,0,1,0,.35A89.5,89.5,0,0,0,369,333.39c-5.06,19.72-3.39,39.82,5,59.73a.25.25,0,0,1-.14.33Z" style="fill:#263238"/><path d="M362.29,371.88a13.63,13.63,0,0,0,5.74,3.58,12.51,12.51,0,0,0-8.79-9.63A13.66,13.66,0,0,0,362.29,371.88Z" style="fill:#407BFF"/><path d="M369.56,334.32a15.3,15.3,0,0,0-2.43,7.2,14.08,14.08,0,0,0,8.25-12.09A15.33,15.33,0,0,0,369.56,334.32Z" style="fill:#407BFF"/><path d="M369.16,319.34a12.54,12.54,0,0,0,2.07,5.88,11.54,11.54,0,0,0-.78-12A12.5,12.5,0,0,0,369.16,319.34Z" style="fill:#407BFF"/><path d="M381.7,306.64a12.52,12.52,0,0,0-4.19,4.62,11.53,11.53,0,0,0,10.16-6.39A12.46,12.46,0,0,0,381.7,306.64Z" style="fill:#407BFF"/><path d="M383.66,299.76a1.69,1.69,0,1,0,1.55-1.81A1.69,1.69,0,0,0,383.66,299.76Z" style="fill:#407BFF"/><path d="M389.78,409.75l-.94-.35a15.58,15.58,0,0,0,.92-5.47h1A16.64,16.64,0,0,1,389.78,409.75Z" style="fill:#407BFF"/><path d="M389,398.7a18.93,18.93,0,0,0-6-9.17l.64-.77a19.9,19.9,0,0,1,6.28,9.66Z" style="fill:#407BFF"/><path d="M378,389.19l2-8.31H361.78l2,8.31a16.36,16.36,0,0,0-9.29,14.74c0,9,7.33,12.31,16.37,12.31s16.37-3.27,16.37-12.31A16.36,16.36,0,0,0,378,389.19Z" style="fill:#407BFF"/></g></svg>